<svg xmlns="http://www.w3.org/2000/svg" viewBox="0 0 720 390"><defs><linearGradient id="s" x2="0" y2="1"><stop stop-color="#eee6da"/><stop offset="1" stop-color="#faf9f4"/></linearGradient><linearGradient id="w"><stop stop-color="#9d9285"/><stop offset="1" stop-color="#c2cbd0"/></linearGradient><filter id="shadow"><feDropShadow dx="5" dy="10" stdDeviation="9" flood-opacity=".10"/></filter><pattern id="win" width="64" height="66" patternUnits="userSpaceOnUse"><rect x="5" y="5" width="42" height="45" fill="url(#w)"/><path d="M26 5v45M5 29h42" stroke="#fffaf0" stroke-width="3"/></pattern></defs><rect width="720" height="390" fill="url(#s)"/><circle cx="605" cy="66" r="40" fill="#fff" opacity=".3"/><path d="M0 319Q180 299 340 325T720 300V390H0Z" fill="#dacbb7"/><g opacity=".45" fill="#dacbb7"><rect x="38" y="199" width="96" height="129"/><rect x="559" y="146" width="105" height="180"/><rect x="624" y="205" width="76" height="132"/></g><g filter="url(#shadow)"><path d="M182 118 465 83 570 131 293 165Z" fill="#fffdf6"/><path d="M182 118v214l284 14V83Z" fill="#fffaf0"/><path d="M466 83v263l104-21V131Z" fill="#dacbb7"/><path d="M207 145 443 119V283l-236 5Z" fill="url(#win)"/><path d="m485 153 60 19v113l-60 11Z" fill="url(#w)"/><path d="M504 158v132M525 163v122M485 214l60 3" fill="none" stroke="#dacbb7" stroke-width="5"/><path d="M159 280 376 278 477 309 261 316Z" fill="#fff"/><path d="M159 280v19l103 37v-20Z" fill="#dacbb7"/><path d="M262 316h215v16H262Z" fill="#fdfcf4"/><path d="M263 331v27h182v-27Z" fill="url(#w)"/><path d="M275 330v25M306 330v26M337 330v27M368 330v27M399 330v26M430 330v24" stroke="#eceee9" stroke-width="4"/><rect x="168" y="299" width="10" height="52" fill="#fbfbf4"/><rect x="460" y="329" width="10" height="29" fill="#eeece4"/><path d="m218 107 0-28 42-5v28z" fill="#fffaf0"/><path d="M232 80v19M224 90l22-3" stroke="#8fa599" stroke-width="6"/></g><g fill="#9ca98d"><ellipse cx="112" cy="303" rx="36" ry="44"/><ellipse cx="95" cy="285" rx="29" ry="31"/><ellipse cx="137" cy="281" rx="26" ry="39"/><ellipse cx="607" cy="290" rx="31" ry="43"/><ellipse cx="632" cy="297" rx="25" ry="29"/></g><path d="M112 300v52M608 297v51" stroke="#9f9a85" stroke-width="6"/><path d="m0 373 266-22 185 10 269-19v48H0Z" fill="#d7d6ca"/><path d="M214 390 331 359h73l139 31Z" fill="#ecebe0"/><g fill="#8b9d7f"><ellipse cx="52" cy="346" rx="45" ry="12"/><ellipse cx="659" cy="349" rx="57" ry="14"/></g></svg>
